<svg width="561" height="102" viewBox="0 0 561 102" fill="none" xmlns="http://www.w3.org/2000/svg">
<g clip-path="url(#clip0_4_1665)">
<path d="M151.192 68.748H146.54C146.259 67.3927 145.719 66.1052 144.949 64.957C144.281 63.9676 143.373 63.1659 142.31 62.628C141.389 62.1713 140.418 61.8233 139.417 61.591C138.482 61.399 137.529 61.3022 136.575 61.302C135 61.2627 133.436 61.573 131.994 62.2106C130.553 62.8483 129.269 63.7976 128.234 64.991C125.88 67.9624 124.71 71.7071 124.952 75.497C124.952 85.425 128.899 90.389 136.795 90.389C137.51 90.3886 138.224 90.3203 138.926 90.185C139.743 90.0224 140.53 89.7358 141.261 89.335C142.109 88.8796 142.889 88.3074 143.579 87.635C144.393 86.7905 145.067 85.8206 145.575 84.762C146.238 83.4449 146.7 82.0351 146.946 80.58H151.615C151.386 82.3318 150.931 84.0461 150.262 85.68C149.733 87.0034 149.021 88.2453 148.147 89.369C147.357 90.2971 146.446 91.1147 145.44 91.8C144.563 92.4312 143.621 92.9669 142.631 93.398C141.748 93.7671 140.83 94.0461 139.891 94.231C139.137 94.3986 138.374 94.5234 137.607 94.605C137.048 94.605 136.507 94.605 135.915 94.605C133.889 94.612 131.878 94.2551 129.976 93.551C128.084 92.8228 126.358 91.7185 124.901 90.304C123.254 88.6204 122.016 86.5788 121.28 84.337C120.324 81.5204 119.866 78.5574 119.927 75.582C119.672 70.6471 121.265 65.7952 124.393 61.982C125.906 60.2775 127.779 58.9347 129.875 58.0522C131.971 57.1697 134.237 56.7699 136.507 56.882C140.239 56.6762 143.912 57.89 146.793 60.282C149.299 62.4226 150.876 65.4589 151.192 68.748Z" fill="#1D1D1D"/>
<path d="M162.037 57.953V75.31L179.311 57.953H185.943L171.122 72.3861L186.349 93.738H180.106L167.654 75.803L162.054 81.175V93.738H157.249V58.038L162.037 57.953Z" fill="#1D1D1D"/>
<path d="M214.924 57.953H220L206.735 88.077C206 90.0785 204.806 91.878 203.25 93.33C202.042 94.257 200.558 94.7481 199.038 94.724C197.866 94.7042 196.699 94.5733 195.552 94.333V90.338C196.475 90.4878 197.409 90.5561 198.344 90.542C199.07 90.596 199.79 90.3712 200.357 89.913C201.126 89.0696 201.77 88.1191 202.269 87.091L188.48 57.953H193.556L204.485 82.399L214.924 57.953Z" fill="#1D1D1D"/>
<path d="M252.026 68.748H247.356C247.083 67.3905 246.542 66.1015 245.766 64.957C245.104 63.9682 244.201 63.1664 243.144 62.628C242.222 62.1712 241.252 61.8233 240.251 61.591C239.315 61.4007 238.363 61.3039 237.408 61.302C235.831 61.2602 234.263 61.5692 232.819 62.2069C231.374 62.8447 230.087 63.7954 229.051 64.991C226.697 67.9624 225.527 71.7071 225.768 75.497C225.768 85.425 229.716 90.389 237.611 90.389C238.327 90.3902 239.041 90.3219 239.743 90.185C240.56 90.025 241.348 89.7382 242.078 89.335C242.928 88.8757 243.713 88.3039 244.412 87.635C245.22 86.7895 245.889 85.8196 246.392 84.762C247.055 83.4448 247.516 82.0351 247.762 80.58H252.432C252.202 82.3318 251.747 84.0461 251.078 85.68C250.556 87.0067 249.844 88.2495 248.964 89.369C248.177 90.3011 247.266 91.1192 246.257 91.8C245.385 92.4308 244.449 92.9665 243.465 93.398C242.575 93.7647 241.651 94.0437 240.707 94.231C239.954 94.3986 239.191 94.5234 238.423 94.605C237.865 94.605 237.341 94.605 236.816 94.605C234.79 94.6139 232.778 94.2569 230.878 93.551C228.986 92.8228 227.259 91.7185 225.802 90.304C224.147 88.6444 222.891 86.6267 222.131 84.405C221.183 81.5863 220.726 78.6248 220.777 75.65C220.523 70.7151 222.116 65.8632 225.244 62.05C226.758 60.3432 228.634 58.999 230.733 58.1164C232.832 57.2339 235.102 56.8353 237.374 56.95C241.101 56.7451 244.768 57.9591 247.644 60.35C250.126 62.4781 251.696 65.4862 252.026 68.748Z" fill="#1D1D1D"/>
<path d="M287.842 68.748H283.173C282.899 67.3905 282.359 66.1015 281.582 64.957C280.921 63.9682 280.018 63.1664 278.96 62.628C278.039 62.1713 277.068 61.8233 276.067 61.591C275.131 61.4007 274.179 61.3039 273.225 61.302C271.647 61.2602 270.08 61.5692 268.635 62.2069C267.19 62.8447 265.903 63.7954 264.867 64.991C262.513 67.9624 261.343 71.7071 261.585 75.497C261.585 85.425 265.532 90.389 273.428 90.389C274.143 90.3902 274.857 90.3219 275.559 90.185C276.377 90.025 277.164 89.7382 277.894 89.335C278.744 88.8757 279.53 88.3039 280.229 87.635C281.037 86.7895 281.705 85.8196 282.208 84.762C282.871 83.4448 283.333 82.0351 283.579 80.58H288.113C287.883 82.3318 287.428 84.0461 286.759 85.68C286.251 86.9749 285.568 88.1933 284.729 89.301C283.963 90.2536 283.069 91.0946 282.073 91.8C281.202 92.4308 280.266 92.9665 279.281 93.398C278.391 93.7647 277.468 94.0437 276.524 94.231C275.77 94.3986 275.007 94.5234 274.24 94.605C273.681 94.605 273.157 94.605 272.548 94.605C270.522 94.6139 268.51 94.2569 266.61 93.551C264.718 92.8228 262.991 91.7185 261.534 90.304C259.882 88.6214 258.638 86.5799 257.897 84.337C256.949 81.5183 256.491 78.5568 256.543 75.582C256.288 70.6471 257.882 65.7952 261.01 61.982C262.524 60.2752 264.399 58.931 266.499 58.0484C268.598 57.1659 270.867 56.7673 273.14 56.882C276.867 56.6771 280.534 57.8911 283.41 60.282C285.926 62.4179 287.516 65.4544 287.842 68.748Z" fill="#1D1D1D"/>
<path d="M306.723 62.237V93.738H301.918V62.237H289.805V57.953H318.752V62.237H306.723Z" fill="#1D1D1D"/>
<path d="M323.066 93.738V58.038H338.716C340.063 57.951 341.413 58.1348 342.689 58.5784C343.964 59.0221 345.138 59.7169 346.143 60.622C347.001 61.4512 347.677 62.4508 348.128 63.5573C348.58 64.6637 348.797 65.8526 348.766 67.048C348.816 68.6314 348.38 70.192 347.518 71.518C346.655 72.844 345.407 73.8712 343.944 74.46L345.636 75.123C346.224 75.4209 346.789 75.7618 347.327 76.143C347.982 76.5622 348.556 77.098 349.019 77.724C349.483 78.4235 349.847 79.1845 350.102 79.985C350.437 81.0049 350.603 82.0731 350.593 83.147C350.626 84.5656 350.356 85.9748 349.802 87.2798C349.247 88.5848 348.421 89.7551 347.378 90.712C344.917 92.8464 341.724 93.932 338.479 93.738H323.066ZM327.871 62.084V73.1H336.55C338.489 73.2292 340.421 72.7734 342.1 71.791C342.751 71.2576 343.261 70.5697 343.583 69.7894C343.905 69.009 344.029 68.1605 343.944 67.32C343.944 63.8294 341.491 62.084 336.584 62.084H327.871ZM327.871 77.027V89.607H338.124C340.141 89.7585 342.142 89.1527 343.741 87.907C344.394 87.2872 344.902 86.5299 345.23 85.6893C345.558 84.8487 345.696 83.9457 345.636 83.045C345.636 79.033 342.844 77.027 337.295 77.027H327.871Z" fill="#1D1D1D"/>
<path d="M389.032 70.907C389.367 72.5288 389.537 74.1807 389.539 75.837C389.539 77.4935 389.369 79.1455 389.032 80.767C388.659 82.5387 388.056 84.2535 387.238 85.867C386.43 87.5235 385.361 89.0388 384.075 90.355C382.657 91.737 380.969 92.8079 379.117 93.5C374.665 95.1323 369.782 95.1323 365.329 93.5C363.478 92.7985 361.791 91.7222 360.372 90.338C359.09 89.0174 358.023 87.503 357.208 85.85C356.398 84.2332 355.795 82.5195 355.415 80.75C355.078 79.1285 354.908 77.4765 354.907 75.82C354.909 74.1637 355.079 72.5118 355.415 70.89C355.797 69.121 356.399 67.4075 357.208 65.79C358.023 64.1371 359.09 62.6227 360.372 61.302C361.787 59.912 363.475 58.8349 365.329 58.14C369.782 56.5078 374.665 56.5078 379.117 58.14C380.973 58.8308 382.663 59.9084 384.075 61.302C385.361 62.6183 386.43 64.1336 387.238 65.79C388.056 67.4096 388.659 69.1299 389.032 70.907ZM381.249 86.343C383.596 83.3628 384.797 79.6337 384.633 75.837C384.794 72.046 383.593 68.3231 381.249 65.348C380.106 64.0816 378.711 63.0695 377.155 62.3769C375.599 61.6844 373.917 61.3266 372.215 61.3266C370.513 61.3266 368.83 61.6844 367.274 62.3769C365.718 63.0695 364.324 64.0816 363.18 65.348C360.836 68.3097 359.634 72.0223 359.797 75.803C359.65 79.6077 360.849 83.3417 363.18 86.343C364.314 87.6233 365.704 88.648 367.26 89.3497C368.815 90.0514 370.501 90.4141 372.206 90.4141C373.911 90.4141 375.597 90.0514 377.153 89.3497C378.709 88.648 380.099 87.6233 381.232 86.343H381.249Z" fill="#1D1D1D"/>
<path d="M457.906 34H446.317C446.215 28.874 447.035 23.7715 448.736 18.938C449.971 15.3022 451.967 11.9746 454.59 9.18003C456.944 6.87589 459.704 5.03125 462.728 3.74003C465.348 2.55317 468.104 1.69667 470.933 1.19003C473.354 0.839348 475.797 0.663231 478.242 0.663031C485.841 0.422978 493.237 3.14602 498.883 8.26203C504.398 13.328 507.156 20.0884 507.156 28.543C507.237 32.1751 506.664 35.792 505.464 39.219C504.072 42.5986 501.911 45.603 499.153 47.991C496.155 50.7577 492.904 53.2337 489.442 55.386C486.059 57.4827 481.107 60.316 474.588 63.886C469.76 66.3641 465.448 69.7453 461.882 73.848C458.972 77.418 457.348 80.393 457.01 82.739H507.156V93.738H443.982C444.58 83.538 446.943 75.446 451.071 69.462C455.199 63.478 463.213 57.392 475.112 51.204C480.616 48.5971 485.688 45.1571 490.153 41.004C491.745 39.2498 492.974 37.1954 493.77 34.9601C494.566 32.7247 494.912 30.3528 494.788 27.982C494.798 23.6446 493.193 19.4605 490.288 16.252C487.294 12.852 482.709 11.152 476.55 11.152C473.57 11.0844 470.616 11.7374 467.939 13.056C465.863 14.0468 464.023 15.4728 462.542 17.238C461.217 19.0955 460.242 21.1813 459.666 23.392C459.1 25.261 458.648 27.1628 458.312 29.087C458.093 30.7166 457.957 32.3564 457.906 34Z" fill="#1D1D1D"/>
<path d="M560.821 0.66304V93.738H548.453V27.761H526.95V18.479C530.228 18.3228 533.493 17.9708 536.729 17.425C539.101 16.9624 541.385 16.1246 543.496 14.943C545.636 13.7624 547.397 11.9933 548.572 9.84304C550.038 6.93239 551.135 3.84828 551.837 0.66304H560.821Z" fill="#1D1D1D"/>
<path d="M140.923 2.53304V6.23904C146.202 6.23904 150.262 7.61603 153.138 10.37C154.504 11.6507 155.588 13.2051 156.32 14.9327C157.051 16.6603 157.414 18.5228 157.385 20.4C157.412 22.2842 157.043 24.153 156.303 25.8842C155.562 27.6155 154.467 29.1703 153.087 30.447C150.228 33.218 146.134 34.595 140.838 34.595V38.284H136.084V34.629C130.795 34.629 126.712 33.2464 123.835 30.481C122.454 29.1996 121.359 27.6387 120.621 25.9012C119.883 24.1636 119.52 22.2888 119.555 20.4C119.529 18.5119 119.899 16.6394 120.643 14.9052C121.386 13.1709 122.486 11.6139 123.869 10.336C126.745 7.58204 130.817 6.20504 136.084 6.20504V2.53304H140.923ZM127.727 12.597C126.626 13.559 125.764 14.7645 125.206 16.1185C124.648 17.4725 124.411 18.9382 124.512 20.4C124.396 21.8605 124.618 23.3281 125.161 24.6878C125.704 26.0475 126.553 27.2623 127.642 28.237C130.079 30.0556 133.07 30.9634 136.101 30.804V10.03C133.069 9.86348 130.075 10.772 127.642 12.597H127.727ZM149.365 28.271C150.445 27.2853 151.284 26.0619 151.815 24.6964C152.346 23.3309 152.556 21.8605 152.428 20.4C152.543 18.9381 152.319 17.4692 151.773 16.1092C151.226 14.7492 150.373 13.5353 149.281 12.563C146.847 10.738 143.853 9.82948 140.822 9.99604V30.838C143.853 30.9974 146.844 30.0896 149.281 28.271H149.365Z" fill="#1D1D1D"/>
<path d="M188.971 34V38.284H162.68V2.58403H188.633V6.80003H167.485V17.306H186.958V21.59H167.485V34H188.971Z" fill="#1D1D1D"/>
<path d="M224.888 13.328H220.219C219.95 11.9689 219.409 10.6791 218.628 9.53704C217.97 8.54933 217.066 7.75217 216.006 7.22504C215.088 6.76088 214.116 6.41257 213.113 6.18804C212.185 5.98309 211.238 5.88048 210.288 5.88204C208.711 5.84364 207.146 6.15598 205.704 6.79669C204.262 7.43739 202.979 8.3906 201.947 9.58804C199.582 12.5478 198.405 16.2894 198.648 20.077C198.648 30.005 202.595 34.969 210.491 34.969C211.211 34.9666 211.929 34.904 212.639 34.782C213.449 34.6046 214.229 34.3127 214.957 33.915C215.816 33.47 216.603 32.8969 217.292 32.215C218.102 31.3739 218.776 30.4101 219.288 29.359C219.933 28.0287 220.394 26.6159 220.659 25.16H225.311C225.09 26.9134 224.635 28.6288 223.958 30.26C223.434 31.5825 222.728 32.8244 221.86 33.949C221.093 34.9011 220.199 35.7421 219.204 36.448C217.559 37.6425 215.668 38.45 213.671 38.811C212.917 38.9773 212.155 39.1021 211.387 39.185C210.829 39.185 210.288 39.27 209.695 39.27C207.667 39.2825 205.654 38.9195 203.757 38.199C201.862 37.4772 200.134 36.3721 198.682 34.952C197.029 33.2734 195.789 31.2302 195.061 28.985C194.12 26.1652 193.668 23.2038 193.724 20.23C193.504 15.3603 195.076 10.5795 198.14 6.80004C199.654 5.09316 201.53 3.74901 203.629 2.86643C205.729 1.98385 207.998 1.58528 210.271 1.70004C213.997 1.50183 217.661 2.71506 220.54 5.10004C222.974 7.1902 224.529 10.1309 224.888 13.328Z" fill="#1D1D1D"/>
<path d="M243.769 6.80004V38.318H239.049V6.80004H226.986V2.53304H255.934V6.80004H243.769Z" fill="#1D1D1D"/>
<path d="M264.918 2.53304V31.824H265.121L283.173 2.53304H288.672V38.318H283.867V9.41804H283.765L265.663 38.318H260.113V2.61804L264.918 2.53304Z" fill="#1D1D1D"/>
<path d="M295.93 38.318V2.61804H311.579C312.922 2.51496 314.271 2.68132 315.549 3.10743C316.828 3.53355 318.008 4.2109 319.023 5.10004C319.878 5.93488 320.552 6.93801 321.003 8.04666C321.455 9.1553 321.673 10.3456 321.646 11.543C321.719 13.137 321.3 14.7147 320.446 16.06C319.591 17.4052 318.344 18.452 316.875 19.057C317.574 19.3064 318.138 19.5274 318.567 19.72C319.161 19.9995 319.728 20.3353 320.258 20.723C320.913 21.1422 321.487 21.6779 321.95 22.304C322.42 22.9997 322.785 23.7617 323.033 24.565C323.376 25.5829 323.542 26.6525 323.524 27.727C323.557 29.1456 323.287 30.5548 322.733 31.8598C322.178 33.1648 321.352 34.3351 320.309 35.292C317.849 37.428 314.656 38.5138 311.41 38.318H295.93ZM300.735 6.68104V17.663H309.431C311.364 17.8015 313.294 17.3449 314.963 16.354C315.625 15.8295 316.146 15.1476 316.48 14.37C316.813 13.5924 316.949 12.7436 316.875 11.9C316.875 8.42071 314.422 6.68104 309.515 6.68104H300.735ZM300.735 21.607V34.187H310.987C313.005 34.3467 315.009 33.7401 316.604 32.487C317.269 31.8735 317.791 31.119 318.13 30.2781C318.47 29.4372 318.619 28.531 318.567 27.625C318.567 23.613 315.786 21.607 310.226 21.607H300.735Z" fill="#1D1D1D"/>
<path d="M349.172 27.88H334.943L331.204 38.318H326.247L339.646 2.61804H345.094L357.952 38.403H352.691L349.172 27.88ZM336.415 23.63H347.446L342.252 7.85404H342.15L336.415 23.63Z" fill="#1D1D1D"/>
<path d="M366.869 2.53304H390.081V38.318H385.276V6.80004H371.741V21.76C371.741 28.2654 371.03 32.7987 369.609 35.36C369.029 36.5182 368.132 37.4857 367.023 38.1483C365.914 38.8109 364.639 39.1412 363.35 39.1C362.214 39.0862 361.082 38.9724 359.966 38.76V34.68C360.712 34.8303 361.473 34.8931 362.233 34.867C364.026 34.867 365.244 33.745 365.853 31.467C366.613 27.7612 366.925 23.977 366.784 20.196L366.869 2.53304Z" fill="#1D1D1D"/>
<path d="M402.16 2.53304V17.323H413.732C415.24 17.2198 416.751 17.4736 418.144 18.0641C419.537 18.6546 420.772 19.5653 421.751 20.723C423.498 22.871 424.444 25.5649 424.424 28.339C424.468 29.6792 424.233 31.0137 423.735 32.2576C423.237 33.5015 422.486 34.6276 421.531 35.564C420.508 36.5231 419.305 37.2668 417.991 37.7515C416.678 38.2361 415.282 38.4519 413.884 38.386H397.338V2.68604L402.16 2.53304ZM402.16 21.607V34H412.463C417.132 34 419.467 32.062 419.467 28.186C419.467 23.7774 417.014 21.573 412.108 21.573L402.16 21.607Z" fill="#1D1D1D"/>
<path d="M103.922 91.494C105.614 91.103 105.935 88.519 106.392 87.04C107.559 81.668 108.084 76.177 109.37 70.805C111.4 61.319 115.832 48.705 127.168 48.025C128.86 48.025 139.011 48.025 140.922 48.025C227.613 48.025 338.97 48.348 425.761 48.824C339.325 49.725 227.562 49.487 140.922 49.708C139.028 49.708 129.08 49.708 127.286 49.708C116.645 50.337 112.466 62.05 110.249 70.992C108.558 77.163 108.05 83.708 105.851 89.692C105.461 90.508 104.954 91.545 103.922 91.596V91.426V91.494Z" fill="#1D1D1D"/>
<path d="M53.877 19.839C61.7779 34.578 63.5204 51.799 66.0413 68.051C67.2763 75.548 67.8854 83.793 70.8292 90.44C70.9883 90.8434 71.2304 91.2084 71.5398 91.511C71.3612 91.4166 71.1656 91.3588 70.9646 91.341C70.6557 91.3422 70.3525 91.4242 70.0848 91.579C72.1996 88.604 72.9609 83.691 73.7053 79.764C76.2093 63.988 76.5646 47.175 77.918 30.991C78.3206 23.8534 79.2537 16.7559 80.7096 9.75804C81.5555 6.85104 82.1476 3.99504 85.0407 1.49604C88.4244 -1.46196 93.7875 0.306037 95.7501 3.75704C98.051 7.49704 98.5924 11.968 99.1338 15.657C99.9662 24.0163 100.311 32.4173 100.166 40.817C100.166 54.417 99.286 68.306 100.014 81.855C100.089 84.581 100.615 87.2754 101.57 89.828C98.1863 85.357 97.2727 79.441 96.0884 74.069C93.1108 57.987 92.3156 40.987 90.6069 24.922C90.2151 19.9296 89.2905 14.9939 87.8491 10.2C87.735 9.88701 87.5815 9.58993 87.3924 9.31604C87.3924 9.18004 87.3923 9.45204 88.2044 9.84304C88.5443 9.97835 88.9049 10.0531 89.2703 10.064C89.985 10.0534 90.6801 9.82843 91.2667 9.41804C91.7404 8.99304 91.5204 9.09504 91.4189 9.41804C88.8812 16.371 88.7797 24.259 88.0353 31.807C86.7833 48.025 86.2081 65.212 83.5857 81.464C82.9367 86.027 81.679 90.4814 79.8467 94.707C78.9233 96.7362 77.4959 98.4925 75.7017 99.807C70.4739 103.496 64.1126 99.807 62.167 94.809C60.8611 91.9096 59.9834 88.8342 59.5615 85.68C57.7513 74.205 57.7513 63.325 57.2437 52.377C56.7362 41.429 56.3301 30.6 53.877 19.839Z" fill="#1D1D1D"/>
<path d="M1.3457 52.7L10.5493 52.7C17.1475 52.598 24.2701 53.414 30.1747 49.946C39.2937 44.846 41.5608 33.694 44.8598 24.582C46.078 21.709 47.313 17 51.1197 16.949V17.119C47.736 17.697 47.1777 22.219 46.1626 25.024C42.8804 38.42 36.6713 53.193 20.7849 53.261H13.4446C12.9267 53.261 1.4303 52.751 1.4303 52.751L1.3457 52.7Z" fill="#1D1D1D"/>
</g>
<defs>
<clipPath id="clip0_4_1665">
<rect width="560" height="102" fill="white" transform="translate(0.5)"/>
</clipPath>
</defs>
</svg>
